inDegrees=no
num_controls=7
num_derivatives=13
num_iterations=139
num_multipliers=7
num_parameters=0
num_slacks=7
num_states=26
objective=0.445755
objective_accelerations=0.057213
objective_balance=0.003621
objective_effort=0.023005
objective_height=0.356350
objective_ligament=0.005566
solver_duration=2039.681174
status=Solve_Succeeded
success=true
DataType=double
version=3
OpenSimVersion=4.5
endheader
time	/jointset/ground_pelvis/pelvis_tilt/value	/jointset/ground_pelvis/pelvis_tx/value	/jointset/ground_pelvis/pelvis_ty/value	/jointset/hip_l/hip_flexion_l/value	/jointset/hip_l/hip_adduction_l/value	/jointset/hip_l/hip_rotation_l/value	/jointset/back/lumbar_extension/value	/jointset/patellofemoral_l/patellar_flexion_l/value	/jointset/knee_l/knee_flexion_l/value	/jointset/knee_l/knee_adduction_l/value	/jointset/knee_l/knee_rotation_l/value	/jointset/ankle_l/ankle_angle_l/value	/jointset/subtalar_l/subtalar_angle_l/value	/jointset/ground_pelvis/pelvis_tilt/speed	/jointset/ground_pelvis/pelvis_tx/speed	/jointset/ground_pelvis/pelvis_ty/speed	/jointset/hip_l/hip_flexion_l/speed	/jointset/hip_l/hip_adduction_l/speed	/jointset/hip_l/hip_rotation_l/speed	/jointset/back/lumbar_extension/speed	/jointset/patellofemoral_l/patellar_flexion_l/speed	/jointset/knee_l/knee_flexion_l/speed	/jointset/knee_l/knee_adduction_l/speed	/jointset/knee_l/knee_rotation_l/speed	/jointset/ankle_l/ankle_angle_l/speed	/jointset/subtalar_l/subtalar_angle_l/speed	/forceset/tau_hip_flexion_l	/forceset/tau_hip_adduction_l	/forceset/tau_hip_rotation_l	/forceset/tau_knee_flexion_l	/forceset/tau_ankle_angle_l	/forceset/tau_subtalar_angle_l	/forceset/tau_lumbar_extension	lambda_cid13_p0	lambda_cid13_p1	lambda_cid13_p2	lambda_cid13_p3	lambda_cid13_p4	lambda_cid13_p5	lambda_cid14_p0	/jointset/ground_pelvis/pelvis_tilt/accel	/jointset/ground_pelvis/pelvis_tx/accel	/jointset/ground_pelvis/pelvis_ty/accel	/jointset/hip_l/hip_flexion_l/accel	/jointset/hip_l/hip_adduction_l/accel	/jointset/hip_l/hip_rotation_l/accel	/jointset/back/lumbar_extension/accel	/jointset/patellofemoral_l/patellar_flexion_l/accel	/jointset/knee_l/knee_flexion_l/accel	/jointset/knee_l/knee_adduction_l/accel	/jointset/knee_l/knee_rotation_l/accel	/jointset/ankle_l/ankle_angle_l/accel	/jointset/subtalar_l/subtalar_angle_l/accel	gamma_cid13_p0	gamma_cid13_p1	gamma_cid13_p2	gamma_cid13_p3	gamma_cid13_p4	gamma_cid13_p5	gamma_cid14_p0
1	-0.554889232773544	-0.08507183667338959	0.5748958992469181	1.840029806796097	-0.4678857206989224	0.01261132207712639	-0.2617938927396078	1.374865816801352	1.374865816800716	-0.08913646075254451	-0.1745286627696983	0.2097635914833702	-0.01670347383384696	-0.01566107788688619	0.01091010098478511	0.00344597817040952	-0.00533318378023769	-0.002507349418207863	0.002906572562025729	-1.696038658291543e-05	-3.46076305458598e-05	-3.46076305458907e-05	-0.005764577588540609	-0.0001331473947256774	0.02063566783664351	0.008691146259637971	-0.3360745957609058	0.01085465139586058	-0.0001542684362463081	-0.3015244851956448	0.04346060866448592	0.03378733586658979	0.2863760137317788	-25.98510681571718	-11.063948769618	2.501585174104001	6.286537433093391	-642.9439968184132	-49.20134575719187	-1.634533369416638	1.552391861803502	0.2716393046438811	1.970401981353855	-6.875011337019805	-0.08514963289176142	-2.349053690334772	-0.0205513684702801	-5.272210395622431	-5.272210395622534	-0.5846887221309101	-0.02938825090976693	-0.6251373010613713	-0.4325506508603705	4.857693674769916e-09	1.803883549382472e-08	-1.203605181199425e-08	2.555671819049071e-09	-1.891079014488322e-09	2.394421436963154e-08	2.330376321442637e-09
1.01	-0.5549692052149235	-0.08494921196685824	0.5750287188322973	1.839634108198025	-0.4679139931312984	0.01252169384151909	-0.2617940313950766	1.374602005570725	1.374602005569962	-0.08922043465620845	-0.1745301769159974	0.2099388592007222	-0.01663673339353004	-0.000334584139966806	0.01361720199060644	0.02311285370162063	-0.07379333686466866	-0.003140548717629762	-0.02082513974341381	-8.791852706778225e-06	-0.05272320154973399	-0.05272320154973325	-0.01102752993603458	-0.0001626755305520654	0.01441219436268579	0.004661658226234043	-0.3359457067328895	0.01095071136755781	-0.0001726247547802218	-0.3013651181960051	0.0433111326248066	0.03381097217976418	0.2862809695096878	-26.01814816596928	-11.07314771006496	2.50844194600723	6.218663313335258	-642.7711782136987	-49.21835281071706	-1.640497447296484	1.522600846427009	0.2706004743104541	1.964065101414853	-6.829538916492074	-0.05141828060129748	-2.384173972842538	0.01179779249877828	-5.266516340325969	-5.266516340325786	-0.4967007827880631	0.01132461246789782	-0.6218037934116083	-0.3874457268786927	-3.369000907317215e-09	9.855896023256122e-09	3.143858413336265e-08	3.616395170372961e-09	-1.218113003844581e-08	7.525472261382124e-08	-9.916398519542781e-09
1.02	-0.5548959481757756	-0.08479944525511686	0.5753580541254708	1.838554203744644	-0.4679484001970951	0.01219495968841941	-0.2617940289995719	1.373811441910855	1.373811441909963	-0.08935695854169247	-0.1745317744021755	0.210051721898765	-0.0166101474030068	0.01498481821858688	0.01633850202679656	0.04274911972923755	-0.142174354842593	-0.003734276102408144	-0.04451461093661335	1.124980845801091e-05	-0.1053850934792808	-0.1053850934792788	-0.01627457395270526	-0.0001498153708995927	0.008154663974782464	0.0006602563008984026	-0.3358168177048665	0.0110467713392583	-0.0001909810733043223	-0.3012057511963657	0.04316165658512709	0.03383460849294247	0.2861859252876034	-26.05694585682966	-11.08133927934982	2.515138738365848	6.171036902617043	-642.6795688279086	-49.2133441539024	-1.657776795469461	1.550973584130374	0.2744791107176277	1.964280080635016	-6.859184315718473	-0.07725524996302935	-2.340605467886745	-0.01817674301255419	-5.266869997694179	-5.266869997694173	-0.5815070559662401	-0.02091059181394121	-0.6319486838505094	-0.4269334292466858	-1.129534901072393e-08	2.377176515468718e-09	7.505350990160189e-08	5.026069461239511e-09	-2.235977825432405e-08	1.251354879010162e-07	-2.174374285794066e-08
1.03	-0.5546694883374333	-0.08462236810661078	0.5758835219938081	1.836791036347983	-0.4679884379391914	0.01163167844645479	-0.2617937956325042	1.372494475387053	1.372494475387181	-0.08954583755591222	-0.1745329251994329	0.2101017613950721	-0.01662333903625518	0.03030953955302892	0.01908182696033375	0.06233166744910069	-0.2104299538886306	-0.004254664075662856	-0.06812056675166309	3.540247575400585e-05	-0.1579957767265906	-0.1579957767266001	-0.02149361969759859	-6.245338286451342e-05	0.00184003790652067	-0.003282804525377794	-0.335377148574906	0.01121654593128743	-0.0002428520285994776	-0.3009087582594055	0.04307423996485722	0.03391741511960487	0.285874595190662	-26.05559273454676	-11.12940986511028	2.536361736790161	6.062007975658139	-642.2796743258938	-49.26786014332758	-1.686578256313441	1.523576391148109	0.2749953739653229	1.953317575148297	-6.804376282221005	-0.03665013740510577	-2.36745090170979	0.01270810218710904	-5.256295520046784	-5.256295520048507	-0.4909736781558299	0.02644283892152493	-0.6331984151734374	-0.3756388500628571	-1.921863235414411e-08	-5.09435707433112e-09	1.186698671986461e-07	6.439304475978948e-09	-3.253728970685453e-08	1.750016639743642e-07	-3.35668072932509e-08
1.04	-0.554289710289137	-0.08441771047091061	0.5766044304308414	1.834346187244227	-0.4680331234742997	0.0108329655936595	-0.2617933213726484	1.370651776424418	1.370651776425565	-0.08978668109646247	-0.1745326370410634	0.2100882588613246	-0.01667549056591527	0.04564846020935071	0.02185459946561512	0.08183723346841856	-0.2785106962616524	-0.004663834704854297	-0.09160093310254175	5.9428366507251e-05	-0.2105315812457964	-0.2105315812458172	-0.02666747921869009	0.0001402383975411421	-0.004553742036118167	-0.007131722981445667	-0.334937479444942	0.01138632052331509	-0.0002947229838969663	-0.3006117653224456	0.04298682334458629	0.03400022174626481	0.2855632650937245	-26.0600331835617	-11.17646584796109	2.557422791503822	5.973359209841397	-641.9614835438252	-49.30094759779863	-1.727162751481639	1.553813448506333	0.2803686250664577	1.948883740525958	-6.824212981115291	-0.05501178115036688	-2.315487575052522	-0.01820209832112068	-5.25189425207337	-5.251894252073327	-0.5724698112058718	0.002155366660188115	-0.6477794587259296	-0.4081049552050177	-2.593997082154936e-08	-9.713871691387274e-09	1.623733410324632e-07	8.770452850997757e-09	-4.194149735722543e-08	2.207704747581354e-07	-4.413416225177307e-08
1.05	-0.5537564507040356	-0.08418516006334517	0.5775199348825227	1.831221585542115	-0.4680811521250993	0.009800314339851977	-0.2617926271813432	1.368284160814274	1.36828416081521	-0.09007897261829063	-0.174529473079719	0.2100103548936042	-0.01676545523428318	0.06100643520765353	0.02466196721983943	0.1012433672709742	-0.3463609062045825	-0.004901967694307666	-0.1148841248996538	7.897827504318066e-05	-0.2629728114150149	-0.2629728114149977	-0.03177379254349996	0.0005423907553915119	-0.01104651746507997	-0.01082202650785485	-0.3341893599770853	0.01159772842249954	-0.0003785021226748099	-0.3001767077213801	0.04292770912038304	0.03417610799389751	0.2850346317158802	-26.03507798506061	-11.27820096082628	2.597604319569038	5.832781178847078	-641.3402897184288	-49.43309754742624	-1.77996592872127	1.527230760587253	0.281895876345904	1.933424401527359	-6.758120847480764	-0.002245738041127323	-2.327990263589907	0.01196879245876771	-5.237416955336738	-5.237416955331047	-0.4771756712795228	0.06677150208703489	-0.6529451029483022	-0.3436375400772622	-3.262374851157915e-08	-1.42442607155452e-08	2.060795372580546e-07	1.113028601852529e-08	-5.132153926377885e-08	2.664112428766073e-07	-5.466227628914563e-08
1.06	-0.5530695231219319	-0.08392434097308839	0.578628889912511	1.827419942571253	-0.4681303684418333	0.008536180111758098	-0.2617917504395503	1.36539269699124	1.365392696991965	-0.09042181998900287	-0.1745207823284485	0.2098669394680004	-0.01689115183565886	0.07638205960975646	0.02750833600388667	0.1205273491298112	-0.4139189500114678	-0.004901367891691256	-0.1378975279587416	9.593846429191129e-05	-0.3153012238238593	-0.3153012238238034	-0.03677864899474969	0.001245596382822858	-0.01765603361272176	-0.01427810958300126	-0.3334412405092323	0.01180913632167152	-0.0004622812614748003	-0.299741650120315	0.04286859489617653	0.03435199424151282	0.2845059983380345	-26.01596806977914	-11.3788626120292	2.637557659365559	5.712725027969669	-640.8015977279803	-49.54500287515202	-1.845464357980899	1.557343329266356	0.2881688310310411	1.924453351782232	-6.765779753906288	-0.007265222736430293	-2.261529827447675	-0.0187200421785875	-5.229330699998543	-5.229330699998364	-0.552178436493854	0.06236602057634476	-0.6711276024619347	-0.3612608649524921	-4.010193295392114e-08	-2.14770001066746e-08	2.47531986625297e-07	1.285271904364501e-08	-6.09726931709595e-08	3.099261252206024e-07	-6.545991267247982e-08
1.07	-0.5522286857016028	-0.08363482514517363	0.5799299974698382	1.82294429068194	-0.4681783887690108	0.00704331056785395	-0.2617907518237201	1.361978617006251	1.361978617006747	-0.09081423604477654	-0.1745036582375252	0.209656779109017	-0.01705027935322408	0.09179273810663195	0.03040484904789476	0.1396661556076044	-0.4811495532218337	-0.004660010868140208	-0.1606258266868036	0.0001021071257672148	-0.3674861652104111	-0.3674861652103607	-0.04168589809693164	0.002224960544140505	-0.024401308318396	-0.01750792560385538	-0.3323801368106818	0.012062747378356	-0.0005801972248368981	-0.299182288717064	0.04291005799298787	0.03458699151557799	0.2837634454484885	-25.94403477507004	-11.5218485466185	2.69271502214708	5.511259144478891	-639.9553435342668	-49.71681014236282	-1.924302072850579	1.534019576943692	0.2918983935327367	1.904379022228125	-6.692428385050431	0.04620945658124811	-2.270944960703251	0.01003368381985903	-5.208769256180607	-5.208769256181489	-0.4572245393734082	0.1226530627094632	-0.6800165385268383	-0.2979512237514856	-4.762237307457762e-08	-2.885348153860037e-08	2.888645558404995e-07	1.45412478058707e-08	-7.063826792923735e-08	3.533279285340402e-07	-7.627188535081196e-08
1.08	-0.5512335236028959	-0.08331604301632939	0.5814216500372335	1.817798187204434	-0.4682227208676169	0.005324665023623593	-0.2617897418485726	1.358043548927758	1.358043548928026	-0.09125516987003188	-0.1744753542152201	0.2093784081761953	-0.01724052688161776	0.1072469952853295	0.03336159618978769	0.1586363511434102	-0.548009267650147	-0.004163722177373498	-0.1830527280235776	9.821032761369518e-05	-0.4194988425248469	-0.4194988425248011	-0.04648220289083563	0.003481582657456636	-0.03129814838033713	-0.0205021117486949	-0.3313190331121332	0.01231635843503563	-0.0006981131882071361	-0.298622927313813	0.04295152108979794	0.03482198878963638	0.2830208925589414	-25.87800211138978	-11.66368659466256	2.747558392985606	5.330446770261337	-639.1924651222241	-49.87010306162603	-2.017177239746514	1.566059065630772	0.3002156506080083	1.890731163384753	-6.69160199749577	0.04372111070668654	-2.201250349190061	-0.02073313410438113	-5.194877885575337	-5.194877885574974	-0.5299895748382706	0.1178176109760091	-0.7014406737153208	-0.3141348897495995	-5.410667610146853e-08	-3.467157831619661e-08	3.285417288002289e-07	1.659756854632623e-08	-7.946740546917107e-08	3.910602009104475e-07	-8.574485624349427e-08
